<svg width="100" height="100" viewBox="0 0 100 100" fill="none" xmlns="http://www.w3.org/2000/svg">
<g clip-path="url(#clip0_5_23)">
<path d="M94 21C83.5 5 58.5 5.5 50 20.5V52.25L71.5 84C74.4097 81.7617 82.7857 75.5 90.5 66.5C99.5 56 105.047 37.8334 94 21Z" fill="#7FFFD4"/>
<path d="M50 20.5C41 6.00001 16 3.50001 4.5 23.5C-4.80394 39.6808 1 58 12.5 70C29.5 86 29.5 86 50 99.5L61 92L71.5 84L50 52.25L50 20.5Z" fill="#282C34"/>
<path d="M53.2395 55.96L58.9629 55.5208C59.5425 55.4763 60.0174 55.0431 60.1149 54.4701C60.2123 53.897 59.9072 53.3312 59.3749 53.0977L54.1182 50.7918C53.253 50.4122 52.3312 50.1776 51.3899 50.0971L30.0634 48.2745C29.5064 48.2269 29.0059 48.6142 28.9122 49.1654C28.8185 49.7165 29.1629 50.2475 29.7043 50.3866L50.435 55.714C51.35 55.9491 52.2975 56.0322 53.2395 55.96Z" fill="white"/>
<path d="M49.5541 55.2735L53.8332 61.9387C54.096 62.3481 54.6205 62.5008 55.0621 62.2966C55.4841 62.1013 55.7093 61.6349 55.5998 61.1829L53.7154 53.4066C53.5286 52.6361 53.257 51.8886 52.9054 51.178L40.7631 26.6378C40.5535 26.2143 40.0447 26.0349 39.6159 26.2333C39.2053 26.4233 39.0083 26.8958 39.1624 27.3212L48.5606 53.264C48.8159 53.9688 49.1491 54.6428 49.5541 55.2735Z" fill="white"/>
<path d="M70.0631 11.8617L70.1023 12.668C70.1188 13.009 70.3031 13.3197 70.5943 13.4979C70.9195 13.6967 71.3277 13.7001 71.6561 13.5067L72.2492 13.1573C72.7297 12.8743 73.0833 12.4177 73.2372 11.8817L74.4978 7.4909C74.5859 7.18402 74.4582 6.85608 74.1859 6.68948C73.8812 6.50316 73.4856 6.57215 73.262 6.85058L70.6234 10.1366C70.2321 10.6238 70.0328 11.2375 70.0631 11.8617Z" fill="white"/>
<path d="M28.2207 13.2074L28.9204 13.61C29.2163 13.7802 29.5773 13.793 29.8845 13.6441C30.2275 13.4779 30.4509 13.1362 30.4655 12.7554L30.4918 12.0675C30.5131 11.5103 30.3199 10.9661 29.952 10.547L26.9377 7.11444C26.7271 6.87453 26.3822 6.8048 26.0948 6.94403C25.7735 7.09975 25.6178 7.46996 25.7314 7.80852L27.0715 11.8041C27.2702 12.3966 27.679 12.8958 28.2207 13.2074Z" fill="white"/>
<path d="M86.7803 72.1529L85.9785 72.0599C85.6393 72.0207 85.3027 72.1517 85.0794 72.41C84.8302 72.6983 84.7603 73.1006 84.8975 73.4561L85.1454 74.0982C85.3463 74.6185 85.7391 75.0418 86.2428 75.2811L90.369 77.2412C90.6574 77.3782 91.0018 77.3058 91.2106 77.0643C91.4441 76.7941 91.4406 76.3926 91.2024 76.1265L88.391 72.9871C87.9741 72.5215 87.4011 72.2248 86.7803 72.1529Z" fill="white"/>
<path d="M15.2012 74.1213L15.5833 73.4103C15.7449 73.1095 15.7472 72.7483 15.5895 72.4455C15.4134 72.1075 15.0653 71.8941 14.6842 71.8906L13.9959 71.8842C13.4383 71.879 12.8999 72.0879 12.4917 72.4679L9.14793 75.5803C8.91423 75.7979 8.85452 76.1447 9.00202 76.4278C9.16699 76.7445 9.54156 76.8894 9.87669 76.7661L13.8317 75.3107C14.4182 75.0949 14.9054 74.6718 15.2012 74.1213Z" fill="white"/>
<path d="M72.311 87.2406L71.6398 86.7921C71.356 86.6024 70.9966 86.5654 70.6801 86.6934C70.3268 86.8363 70.081 87.1623 70.041 87.5413L69.9686 88.2258C69.91 88.7804 70.0664 89.3363 70.4054 89.779L73.183 93.4058C73.3771 93.6593 73.7166 93.7519 74.0126 93.6323C74.3437 93.4984 74.5237 93.1395 74.4331 92.7941L73.3636 88.7177C73.205 88.1133 72.8306 87.5878 72.311 87.2406Z" fill="white"/>
<path d="M30.2392 87.5811L30.241 86.7739C30.2418 86.4325 30.0735 86.1128 29.7917 85.9201C29.4771 85.705 29.0695 85.6809 28.7317 85.8575L28.1217 86.1763C27.6275 86.4346 27.2511 86.8726 27.0703 87.4001L25.5885 91.7213C25.4849 92.0233 25.5957 92.3573 25.8593 92.5375C26.1541 92.739 26.5527 92.6902 26.7901 92.4235L29.5921 89.2756C30.0076 88.8088 30.2378 88.2061 30.2392 87.5811Z" fill="white"/>
<path d="M85.2395 25.464L84.859 26.1759C84.6981 26.477 84.6966 26.8382 84.855 27.1407C85.0318 27.4783 85.3804 27.6909 85.7615 27.6936L86.4498 27.6984C87.0074 27.7023 87.5453 27.4922 87.9527 27.1113L91.2895 23.9914C91.5227 23.7733 91.5816 23.4264 91.4335 23.1436C91.2678 22.8272 90.8929 22.6832 90.5581 22.8073L86.6063 24.2715C86.0203 24.4886 85.5341 24.9128 85.2395 25.464Z" fill="white"/>
<path d="M13.2952 28.5655L14.0973 28.6565C14.4365 28.695 14.7728 28.5631 14.9955 28.3043C15.244 28.0154 15.313 27.613 15.1749 27.2578L14.9255 26.6163C14.7234 26.0965 14.3297 25.6741 13.8254 25.436L9.6945 23.4856C9.40578 23.3493 9.06159 23.4225 8.85335 23.6645C8.62046 23.9352 8.62492 24.3368 8.86377 24.6023L11.6826 27.7351C12.1006 28.1996 12.6742 28.495 13.2952 28.5655Z" fill="white"/>
<path d="M48.6045 6.60109L49.04 7.28076C49.2242 7.56823 49.5387 7.74593 49.88 7.75537C50.261 7.7659 50.6167 7.56552 50.8051 7.23424L51.1454 6.63592C51.4211 6.15118 51.5004 5.57916 51.3669 5.03772L50.2735 0.602349C50.197 0.292351 49.923 0.0715257 49.6039 0.0627003C49.2469 0.0528296 48.9382 0.309678 48.883 0.662478L48.2312 4.82606C48.1346 5.44347 48.2674 6.0749 48.6045 6.60109Z" fill="white"/>
<path d="M51.2747 93.258L50.8455 92.5743C50.664 92.2852 50.3511 92.1046 50.0099 92.092C49.6291 92.0779 49.2715 92.2751 49.08 92.6046L48.7342 93.1997C48.4541 93.6819 48.3695 94.2532 48.498 94.7958L49.5506 99.2411C49.6241 99.5518 49.8961 99.7751 50.2151 99.7869C50.572 99.8 50.8831 99.546 50.9415 99.1938L51.6316 95.0364C51.734 94.4199 51.607 93.7872 51.2747 93.258Z" fill="white"/>
<path d="M93.3736 48.6576L92.6731 49.0587C92.3768 49.2284 92.1837 49.5337 92.1573 49.8741C92.1278 50.254 92.3102 50.6193 92.6317 50.824L93.2123 51.1936C93.6827 51.4931 94.2501 51.6008 94.7975 51.4944L99.2818 50.6232C99.5953 50.5623 99.8294 50.2996 99.8542 49.9813C99.8818 49.6253 99.6406 49.3041 99.291 49.2314L95.165 48.3732C94.5532 48.2459 93.9159 48.3471 93.3736 48.6576Z" fill="white"/>
<path d="M7.60516 51.6241L8.31146 51.2332C8.61019 51.0679 8.80777 50.7655 8.83916 50.4256C8.8742 50.0461 8.69713 49.6782 8.37867 49.4688L7.8035 49.0907C7.33752 48.7844 6.77178 48.6684 6.22287 48.7668L1.72631 49.5724C1.41203 49.6287 1.17403 49.8879 1.14467 50.2058C1.11184 50.5614 1.34828 50.886 1.6968 50.9639L5.80978 51.8823C6.41969 52.0185 7.05836 51.9267 7.60516 51.6241Z" fill="white"/>
</g>
<defs>
<clipPath id="clip0_5_23">
<rect width="100" height="100" fill="white"/>
</clipPath>
</defs>
</svg>
